<?xml version="1.0" encoding="UTF-8" standalone="no"?>
<svg
   xmlns:dc="http://purl.org/dc/elements/1.1/"
   xmlns:cc="http://creativecommons.org/ns#"
   xmlns:rdf="http://www.w3.org/1999/02/22-rdf-syntax-ns#"
   xmlns:svg="http://www.w3.org/2000/svg"
   xmlns="http://www.w3.org/2000/svg"
   xmlns:sodipodi="http://sodipodi.sourceforge.net/DTD/sodipodi-0.dtd"
   xmlns:inkscape="http://www.inkscape.org/namespaces/inkscape"
   viewBox="0 0 32 32"
   version="1.1"
   id="svg4"
   sodipodi:docname="OK-595b40b65ba036ed117d2107.svg"
   inkscape:version="0.92.1 r15371">
  <metadata
     id="metadata10">
    <rdf:RDF>
      <cc:Work
         rdf:about="">
        <dc:format>image/svg+xml</dc:format>
        <dc:type
           rdf:resource="http://purl.org/dc/dcmitype/StillImage" />
      </cc:Work>
    </rdf:RDF>
  </metadata>
  <defs
     id="defs8" />
  <sodipodi:namedview
     pagecolor="#ffffff"
     bordercolor="#666666"
     borderopacity="1"
     objecttolerance="10"
     gridtolerance="10"
     guidetolerance="10"
     inkscape:pageopacity="0"
     inkscape:pageshadow="2"
     inkscape:window-width="1600"
     inkscape:window-height="837"
     id="namedview6"
     showgrid="false"
     inkscape:zoom="7.375"
     inkscape:cx="16"
     inkscape:cy="16"
     inkscape:window-x="-8"
     inkscape:window-y="-8"
     inkscape:window-maximized="1"
     inkscape:current-layer="svg4" />
  <path
     style="text-indent:0;text-align:start;line-height:normal;text-transform:none;block-progression:tb;-inkscape-font-specification:Bitstream Vera Sans"
     d="M 16 3 C 8.8321429 3 3 8.8321429 3 16 C 3 23.167857 8.8321429 29 16 29 C 23.167857 29 29 23.167857 29 16 C 29 8.8321429 23.167857 3 16 3 z M 16 5 C 22.086977 5 27 9.9130231 27 16 C 27 22.086977 22.086977 27 16 27 C 9.9130231 27 5 22.086977 5 16 C 5 9.9130231 9.9130231 5 16 5 z M 22.28125 11.28125 L 15 18.5625 L 10.71875 14.28125 L 9.28125 15.71875 L 14.28125 20.71875 L 15 21.40625 L 15.71875 20.71875 L 23.71875 12.71875 L 22.28125 11.28125 z"
     overflow="visible"
     font-family="Bitstream Vera Sans"
     id="path2" />
  <path
     style="fill:#ffffff;stroke-width:0.13559322"
     d="M 13.439048,28.679852 C 12.057334,28.367426 11.263458,28.078009 10.068713,27.451159 6.8962584,25.786658 4.6403806,23.05046 3.5674389,19.565639 3.227612,18.461911 3.2002008,18.195765 3.2002008,16 c 0,-2.195265 0.027464,-2.462078 0.3669133,-3.564518 C 4.9014298,8.1019801 8.1019801,4.9014298 12.435482,3.5671141 13.537922,3.2276652 13.804735,3.2002008 16,3.2002008 c 2.205393,0 2.459018,0.026412 3.59322,0.3741831 4.276242,1.3111907 7.519134,4.562088 8.838162,8.8599771 0.334488,1.089885 0.366754,1.391566 0.374118,3.497842 0.007,2.014076 -0.03108,2.440234 -0.302006,3.375598 -1.288339,4.448048 -4.581833,7.814754 -8.910274,9.108339 -1.035747,0.309541 -1.52799,0.371879 -3.254237,0.412122 -1.436218,0.03348 -2.288391,-0.01013 -2.899935,-0.14841 z m 4.96637,-1.916051 c 4.135015,-0.865267 7.390657,-4.110592 8.375914,-8.349367 0.303467,-1.305584 0.302039,-3.525492 -0.0031,-4.855112 C 26.138369,10.771495 24.507608,8.3955433 22.172298,6.8486999 20.224195,5.5583317 18.28934,4.9691375 16,4.9691375 c -5.224203,0 -9.6490118,3.5509041 -10.788776,8.6579815 -0.3126038,1.400721 -0.3126038,3.345041 0,4.745762 0.941054,4.216693 4.2215388,7.513541 8.348098,8.389739 1.799473,0.382084 3.024376,0.382383 4.846096,0.0012 z"
     id="path3682"
     inkscape:connector-curvature="0" />
  <path
     style="fill:#ffffff;stroke-width:0.13559322"
     d="m 12.197365,18.502444 -2.7672711,-2.769743 0.6714491,-0.681699 0.671449,-0.6817 2.139252,2.136117 2.139252,2.136117 3.629822,-3.627954 3.629821,-3.627954 0.671896,0.682152 0.671895,0.682153 -3.590177,3.600091 c -1.974597,1.98005 -3.929913,3.897557 -4.345147,4.261127 l -0.75497,0.661037 z"
     id="path3684"
     inkscape:connector-curvature="0" />
</svg>
